<?xml version="1.0" encoding="UTF-8" standalone="no"?><!DOCTYPE svg PUBLIC "-//W3C//DTD SVG 1.1//EN" "http://www.w3.org/Graphics/SVG/1.1/DTD/svg11.dtd"><svg width="100%" height="100%" viewBox="0 0 500 500" version="1.1" xmlns="http://www.w3.org/2000/svg" xmlns:xlink="http://www.w3.org/1999/xlink" xml:space="preserve" xmlns:serif="http://www.serif.com/" style="fill-rule:evenodd;clip-rule:evenodd;stroke-linejoin:round;stroke-miterlimit:1.41421;"><g id="Robot"><path d="M363.879,320.332l-227.762,0l0,-184.211l227.762,0l0,184.211Zm-211.532,-16.23l195.302,0l0,-151.751l-195.302,0l0,151.751Z" style="fill:#0074d9;fill-rule:nonzero;"/><path d="M361.985,444.759l-230.195,0c-14.764,0 -26.777,-12.014 -26.777,-26.778c0,-14.764 12.013,-26.778 26.777,-26.778l230.195,0c14.764,0 26.778,12.014 26.778,26.778c0,14.764 -12.014,26.778 -26.778,26.778Zm-230.195,-37.326c-5.816,0 -10.548,4.731 -10.548,10.548c0,5.817 4.732,10.548 10.548,10.548l230.195,0c5.817,0 10.548,-4.731 10.548,-10.548c0,-5.817 -4.731,-10.548 -10.548,-10.548l-230.195,0Z" style="fill:#0074d9;fill-rule:nonzero;"/><rect x="185.889" y="312.217" width="16.23" height="87.101" style="fill:#0074d9;"/><rect x="297.877" y="312.217" width="16.23" height="87.101" style="fill:#0074d9;"/><path d="M187.783,108.805c-14.764,0 -26.778,-12.014 -26.778,-26.786c0,-14.764 12.014,-26.778 26.778,-26.778c14.767,0 26.781,12.014 26.781,26.778c0,14.772 -12.014,26.786 -26.781,26.786Zm0,-37.334c-5.817,0 -10.548,4.731 -10.548,10.548c0,5.817 4.731,10.556 10.548,10.556c5.816,0 10.552,-4.739 10.552,-10.556c0,-5.817 -4.736,-10.548 -10.552,-10.548Z" style="fill:#0074d9;fill-rule:nonzero;"/><path d="M318.434,108.805c-14.764,0 -26.777,-12.014 -26.777,-26.786c0,-14.764 12.013,-26.778 26.777,-26.778c14.764,0 26.778,12.014 26.778,26.778c0,14.772 -12.014,26.786 -26.778,26.786Zm0,-37.334c-5.817,0 -10.548,4.731 -10.548,10.548c0,5.817 4.731,10.556 10.548,10.556c5.817,0 10.548,-4.739 10.548,-10.556c0,-5.817 -4.731,-10.548 -10.548,-10.548Z" style="fill:#0074d9;fill-rule:nonzero;"/><rect x="179.668" y="100.69" width="16.23" height="43.547" style="fill:#0074d9;"/><rect x="310.319" y="100.69" width="16.23" height="43.547" style="fill:#0074d9;"/><path d="M144.232,276.778c-25.054,0 -45.44,-20.383 -45.44,-45.441c0,-25.058 20.386,-45.44 45.44,-45.44l0,16.23c-16.107,0 -29.21,13.107 -29.21,29.21c0,16.103 13.103,29.211 29.21,29.211l0,16.23Z" style="fill:#0074d9;fill-rule:nonzero;"/><path d="M355.764,276.778l0,-16.23c16.107,0 29.214,-13.108 29.214,-29.211c0,-16.103 -13.107,-29.21 -29.214,-29.21l0,-16.23c25.058,0 45.444,20.382 45.444,45.44c0,25.058 -20.386,45.441 -45.444,45.441Z" style="fill:#0074d9;fill-rule:nonzero;"/><path d="M209.56,218.895c-14.764,0 -26.778,-12.014 -26.778,-26.777c0,-14.764 12.014,-26.778 26.778,-26.778c14.768,0 26.782,12.014 26.782,26.778c0,14.763 -12.014,26.777 -26.782,26.777Zm0,-37.325c-5.817,0 -10.548,4.731 -10.548,10.548c0,5.816 4.731,10.547 10.548,10.547c5.817,0 10.552,-4.731 10.552,-10.547c0,-5.817 -4.735,-10.548 -10.552,-10.548Z" style="fill:#0074d9;fill-rule:nonzero;"/><path d="M290.44,218.895c-14.768,0 -26.782,-12.014 -26.782,-26.777c0,-14.764 12.014,-26.778 26.782,-26.778c14.764,0 26.778,12.014 26.778,26.778c0,14.763 -12.014,26.777 -26.778,26.777Zm0,-37.325c-5.817,0 -10.552,4.731 -10.552,10.548c0,5.816 4.735,10.547 10.552,10.547c5.817,0 10.548,-4.731 10.548,-10.547c0,-5.817 -4.731,-10.548 -10.548,-10.548Z" style="fill:#0074d9;fill-rule:nonzero;"/><path d="M312.637,284.893l-125.274,0c-10.207,0 -18.513,-8.305 -18.513,-18.513l0,-11.665c0,-10.207 8.306,-18.512 18.513,-18.512l125.274,0c10.207,0 18.513,8.305 18.513,18.512l0,11.665c0,10.208 -8.306,18.513 -18.513,18.513Zm-125.274,-32.46c-1.26,0 -2.283,1.022 -2.283,2.282l0,11.665c0,1.261 1.023,2.283 2.283,2.283l125.274,0c1.26,0 2.283,-1.022 2.283,-2.283l0,-11.665c0,-1.26 -1.023,-2.282 -2.283,-2.282l-125.274,0Z" style="fill:#0074d9;fill-rule:nonzero;"/></g></svg>