<?xml version="1.0" standalone="no"?>
<!DOCTYPE svg PUBLIC "-//W3C//DTD SVG 20010904//EN"
 "http://www.w3.org/TR/2001/REC-SVG-20010904/DTD/svg10.dtd">
<svg version="1.0" xmlns="http://www.w3.org/2000/svg"
 width="700.000000pt" height="700.000000pt" viewBox="0 0 700.000000 700.000000"
 preserveAspectRatio="xMidYMid meet">
<metadata>
Created by potrace 1.11, written by Peter Selinger 2001-2013
</metadata>
<g transform="translate(0.000000,700.000000) scale(0.100000,-0.100000)"
fill="#000000" stroke="none">
<path d="M2568 6219 c-168 -26 -297 -169 -311 -344 -11 -141 70 -283 201 -353
l57 -31 -1 -193 c-1 -106 -2 -195 -3 -198 0 -3 -136 -5 -301 -5 -195 0 -301
-3 -303 -10 -2 -5 -3 -164 -2 -353 l0 -343 -55 -15 c-212 -61 -370 -216 -442
-438 -24 -76 -30 -249 -9 -316 50 -167 114 -267 231 -359 67 -53 117 -79 205
-106 l70 -22 1 -289 c1 -159 2 -298 3 -309 1 -20 7 -20 342 -20 191 0 343 -3
346 -9 4 -6 8 -869 4 -962 -1 -20 -4 -20 -368 -20 -203 1 -396 -2 -430 -6
-126 -14 -241 -98 -296 -216 -93 -198 13 -440 223 -509 52 -17 144 -18 1705
-19 907 0 1672 3 1699 7 109 18 224 107 273 213 24 53 28 73 28 156 0 88 -3
100 -33 162 -57 113 -159 187 -282 205 -30 4 -205 8 -387 8 -293 -1 -333 1
-334 15 -4 71 -1 959 4 966 3 5 146 9 339 8 183 0 338 3 343 7 7 5 10 114 10
304 0 163 2 299 5 303 3 4 32 16 65 26 160 48 312 178 383 326 49 101 70 198
66 300 -3 88 -7 114 -30 183 -64 194 -233 353 -434 411 l-55 16 0 346 c0 190
-2 349 -5 353 -3 4 -120 7 -260 6 l-255 0 -3 200 -2 200 46 19 c63 26 148 112
182 183 23 50 27 70 27 153 0 86 -3 101 -32 160 -173 358 -706 238 -705 -160
0 -146 71 -261 205 -332 l52 -28 1 -187 c0 -104 -1 -193 -3 -198 -2 -7 -261
-11 -801 -10 l-797 0 -1 203 c-1 166 2 202 13 202 22 0 115 64 150 102 108
121 125 314 39 444 -37 57 -46 67 -98 106 -76 58 -179 83 -280 67z m140 -246
c70 -52 88 -139 42 -203 -79 -110 -245 -70 -265 65 -13 90 61 168 153 161 24
-2 55 -12 70 -23z m1831 0 c65 -50 84 -123 47 -189 -76 -136 -282 -78 -271 76
3 58 30 97 83 123 44 21 104 17 141 -10z m329 -2168 l-1 -1063 -1366 2 -1366
1 -2 1061 -1 1062 1368 0 1368 0 0 -1063z m-2963 -42 c0 -381 0 -388 -20 -385
-77 14 -190 118 -237 217 -25 55 -31 81 -33 151 -4 123 36 224 124 309 37 36
134 95 156 95 7 0 10 -133 10 -387z m3263 359 c298 -158 287 -584 -19 -730
-25 -12 -47 -22 -50 -22 -2 0 -4 176 -4 390 0 253 3 390 10 390 5 0 34 -13 63
-28z m-998 -2103 l0 -495 -670 0 -670 -1 0 496 0 496 670 0 670 0 0 -496z
m967 -742 c82 -44 101 -156 39 -226 -48 -54 41 -51 -1713 -51 -1080 0 -1640 4
-1665 10 -95 27 -130 165 -60 235 15 15 39 33 53 39 20 8 471 11 1670 11 1542
-1 1646 -2 1676 -18z"/>
<path d="M2878 4679 c-178 -27 -314 -183 -315 -359 -3 -291 295 -471 556 -336
37 20 105 87 134 133 82 131 68 305 -33 433 -75 94 -218 148 -342 129z m138
-250 c60 -37 81 -123 45 -189 -70 -131 -275 -78 -273 71 1 65 47 126 107 142
31 8 87 -3 121 -24z"/>
<path d="M4008 4679 c-119 -19 -227 -102 -281 -216 -26 -57 -30 -77 -31 -152
0 -76 3 -94 31 -153 113 -240 421 -295 603 -108 82 84 111 162 106 286 -8 212
-213 377 -428 343z m142 -249 c83 -59 79 -189 -7 -246 -64 -41 -174 -9 -207
60 -64 136 93 272 214 186z"/>
<path d="M2610 3689 c-106 -9 -186 -65 -226 -157 -24 -53 -25 -301 -1 -354 26
-61 63 -103 119 -134 l53 -29 945 0 945 0 44 23 c57 31 99 75 124 131 16 36
21 70 22 160 2 129 -8 190 -40 241 -32 50 -63 76 -120 101 l-49 22 -876 1
c-481 1 -904 -2 -940 -5z m1788 -232 c14 -9 17 -183 3 -205 -6 -11 -175 -13
-892 -13 -487 0 -893 3 -902 7 -14 5 -17 21 -17 105 0 76 3 100 15 106 19 11
1776 11 1793 0z"/>
</g>
</svg>
